#!OML:ASF F:\VICON\USERDATA\INSTALL\rory3\rory3.ASF
:FULLY-SPECIFIED
:DEGREES
1
root 1.21055 17.7521 -24.0091 -2.27354 0.678215 3.91989
lowerback 10.725 -1.33888 -4.78241
upperback 0.670971 -2.29505 1.12752
thorax -5.07981 -1.01211 4.2197
lowerneck -16.266 -2.32307 -2.27204
upperneck 20.2076 -2.49771 -0.605416
head 9.05136 -1.4149 -0.141977
rclavicle 3.6477e-014 -1.19271e-014
rhumerus -34.983 -21.1141 -75.4916
rradius 23.4097
rwrist 5.24524
rhand -17.0592 21.847
rfingers 7.12502
rthumb 9.17819 -7.93329
lclavicle 3.6477e-014 -1.19271e-014
lhumerus -23.5895 -2.62774 82.0423
lradius 28.2662
lwrist 7.12643
lhand -29.0479 19.9467
lfingers 7.12502
lthumb -2.39794 49.9129
rfemur -30.0443 5.7317 15.1852
rtibia 23.5049
rfoot -10.3746 -12.6208
rtoes 1.26715
lfemur 7.31806 -1.97856 -28.9424
ltibia 18.6358
lfoot -17.6313 -1.12399
ltoes 2.68769
2
root 1.19222 17.7459 -23.8327 -2.17209 0.914293 4.26759
lowerback 10.7232 -1.47014 -5.40941
upperback 0.60639 -2.54029 1.24836
thorax -5.08883 -1.116 4.73829
lowerneck -16.1653 -2.29534 -2.59631
upperneck 20.2577 -2.37202 -0.629752
head 9.05429 -1.38445 -0.0802071
rclavicle 1.21756e-014 -8.74653e-015
rhumerus -35.1169 -21.0285 -75.1384
rradius 23.1351
rwrist 5.49369
rhand -16.4096 23.1917
rfingers 7.12502
rthumb 9.80498 -6.56003
lclavicle 1.21756e-014 -8.74653e-015
lhumerus -23.3783 -2.28062 82.1014
lradius 28.4912
lwrist 7.15486
lhand -29.4792 19.0743
lfingers 7.12502
lthumb -2.81448 49.0355
rfemur -29.6894 6.99059 14.0498
rtibia 20.6148
rfoot -10.58 -13.2693
rtoes -0.070806
lfemur 8.42958 -1.77952 -29.1811
ltibia 17.4907
lfoot -17.4497 -1.54809
ltoes 1.45885
3
root 1.17552 17.7349 -23.6528 -2.15825 1.22315 4.42234
lowerback 10.8077 -1.62793 -5.6733
upperback 0.492106 -2.78575 1.3235
thorax -5.21155 -1.22292 5.00894
lowerneck -15.9782 -2.23993 -2.85934
upperneck 20.5222 -2.23256 -0.630452
head 9.11429 -1.34213 -0.0193085
rclavicle 1.6201e-014 -5.56597e-015
rhumerus -35.5354 -21.1012 -74.7452
rradius 23.0282
rwrist 5.76291
rhand -16.3119 23.024
rfingers 7.12502
rthumb 9.89928 -6.72323
lclavicle 1.6201e-014 -5.56597e-015
lhumerus -23.4037 -2.07835 82.1046
lradius 28.7743
lwrist 7.10895
lhand -29.5845 20.027
lfingers 7.12502
lthumb -2.9162 49.9868
rfemur -29.2879 8.00923 13.1829
rtibia 18.0587
rfoot -10.9708 -14.0112
rtoes -0.226221
lfemur 9.39852 -1.83705 -29.2672
ltibia 16.8376
lfoot -17.3642 -1.8148
ltoes -2.15311
4
root 1.15647 17.7278 -23.474 -2.0105 1.49815 4.40674
lowerback 10.6865 -1.79694 -5.706
upperback 0.360269 -3.00951 1.34847
thorax -5.25193 -1.32768 5.08291
lowerneck -15.5385 -2.17546 -2.8625
upperneck 20.3052 -2.17775 -0.55385
head 8.95889 -1.30708 0.0206814
rclavicle -7.40473e-015 -3.97569e-015
rhumerus -35.8599 -20.9707 -74.7046
rradius 22.9193
rwrist 5.6226
rhand -16.9972 21.8831
rfingers 7.12502
rthumb 9.23805 -7.89456
lclavicle -7.40473e-015 -3.97569e-015
lhumerus -23.3056 -2.0244 81.9526
lradius 28.9189
lwrist 7.14304
lhand -29.5838 22.548
lfingers 7.12502
lthumb -2.91556 52.5078
rfemur -28.9171 9.1304 12.4885
rtibia 15.5644
rfoot -12.0332 -14.9945
rtoes -0.244246
lfemur 10.2298 -1.96188 -29.1454
ltibia 16.1385
lfoot -17.1292 -2.2142
ltoes -0.265137
5
root 1.1339 17.7288 -23.2997 -1.88866 1.78936 4.23045
lowerback 10.698 -1.93655 -5.66866
upperback 0.291203 -3.18502 1.49108
thorax -5.30289 -1.41002 5.24003
lowerneck -15.2659 -2.19329 -2.86297
upperneck 19.8656 -2.20138 -0.611693
head 8.75811 -1.3211 0.00430559
rclavicle -2.11706e-014 -6.36111e-015
rhumerus -36.023 -21.2785 -74.373
rradius 22.6567
rwrist 5.95801
rhand -17.1404 21.6319
rfingers 7.12502
rthumb 9.09986 -8.15174
lclavicle -2.11706e-014 -6.36111e-015
lhumerus -23.0277 -1.83943 81.9085
lradius 28.9995
lwrist 7.22347
lhand -29.2752 23.675
lfingers 7.12502
lthumb -2.6175 53.6387
rfemur -28.4779 10.136 12.1184
rtibia 13.5172
rfoot -12.999 -16.2139
rtoes -3.22229
lfemur 10.8415 -2.01088 -28.7739
ltibia 15.8404
lfoot -17.0242 -2.73445
ltoes -0.896608
6
root 1.11061 17.7221 -23.1254 -1.84816 2.02585 4.28512
lowerback 10.9219 -2.04679 -6.01716
upperback 0.126636 -3.38297 1.65529
thorax -5.54808 -1.48236 5.65873
lowerneck -14.9252 -2.16649 -3.03401
upperneck 19.7164 -2.13273 -0.628485
head 8.64695 -1.30257 0.039866
rclavicle 1.43622e-014 2.38542e-015
rhumerus -36.3548 -21.4777 -73.8337
rradius 22.343
rwrist 6.5005
rhand -16.9734 21.6096
rfingers 7.12502
rthumb 9.26106 -8.167
lclavicle 1.43622e-014 2.38542e-015
lhumerus -23.0021 -1.70229 81.9776
lradius 29.0065
lwrist 7.44115
lhand -29.0663 23.6211
lfingers 7.12502
lthumb -2.41575 53.5871
rfemur -27.9668 10.8636 11.6821
rtibia 11.9499
rfoot -13.4545 -17.1706
rtoes -2.82458
lfemur 11.3437 -2.26016 -28.7259
ltibia 15.9391
lfoot -16.9575 -3.0257
ltoes -1.61831
7
root 1.08614 17.7062 -22.9493 -1.76598 2.06776 4.1594
lowerback 10.9812 -2.07995 -6.03648
upperback -0.00964597 -3.43208 1.73238
thorax -5.71364 -1.49444 5.76786
lowerneck -14.5726 -2.1587 -3.10026
upperneck 19.5875 -2.13516 -0.564368
head 8.54071 -1.301 0.0768428
rclavicle 7.35503e-014 6.36111e-015
rhumerus -36.8404 -21.8445 -73.4528
rradius 22.1921
rwrist 6.79449
rhand -17.0983 21.7889
rfingers 7.12502
rthumb 9.14047 -7.99303
lclavicle 7.35503e-014 6.36111e-015
lhumerus -22.9585 -1.57406 81.9091
lradius 28.98
lwrist 7.32993
lhand -29.3941 25.0128
lfingers 7.12502
lthumb -2.73231 54.975
rfemur -27.7717 10.824 11.8883
rtibia 11.2108
rfoot -13.3178 -17.4278
rtoes -5.46731
lfemur 11.7513 -2.3447 -28.472
ltibia 16.1839
lfoot -16.9924 -3.19439
ltoes -3.07379
8
root 1.06446 17.6888 -22.7771 -1.67001 2.19343 3.95089
lowerback 11.0306 -2.12648 -5.82776
upperback 0.0135943 -3.466 1.78951
thorax -5.72018 -1.51657 5.71724
lowerneck -14.9035 -2.15655 -3.04716
upperneck 19.6654 -2.12865 -0.575478
head 8.62627 -1.2956 0.0609688
rclavicle 1.00386e-014 -2.62396e-014
rhumerus -37.0087 -22.0149 -73.393
rradius 22.2501
rwrist 6.64614
rhand -17.2668 21.5386
rfingers 7.12502
rthumb 8.97791 -8.25037
lclavicle 1.00386e-014 -2.62396e-014
lhumerus -22.6605 -1.68718 81.8348
lradius 29.1929
lwrist 7.36234
lhand -30.3987 28.3233
lfingers 7.12502
lthumb -3.70251 58.2709
rfemur -27.8997 9.68711 12.6589
rtibia 11.4523
rfoot -12.6511 -16.7273
rtoes -4.92068
lfemur 12.08 -2.67209 -28.1847
ltibia 16.4989
lfoot -16.9633 -3.21752
ltoes -4.5286
9
root 1.04794 17.6759 -22.5954 -1.64086 2.54525 4.07086
lowerback 11.1688 -2.16734 -5.792
upperback 0.109104 -3.52662 1.69568
thorax -5.69594 -1.55176 5.6102
lowerneck -15.6364 -2.22351 -2.93743
upperneck 19.821 -2.22315 -0.555282
head 8.81234 -1.33025 0.0291305
rclavicle 2.67862e-014 -2.38542e-015
rhumerus -37.0911 -22.3173 -73.4009
rradius 22.3636
rwrist 6.37171
rhand -17.228 21.2367
rfingers 7.12502
rthumb 9.01534 -8.55068
lclavicle 2.67862e-014 -2.38542e-015
lhumerus -22.1594 -2.01868 81.8141
lradius 29.3762
lwrist 7.60706
lhand -30.8707 30.1123
lfingers 7.12502
lthumb -4.15825 60.0515
rfemur -28.122 7.97833 13.2304
rtibia 12.5128
rfoot -11.6259 -15.5283
rtoes -1.82781
lfemur 12.454 -3.16198 -28.2959
ltibia 16.9016
lfoot -16.8743 -3.30475
ltoes -5.48359
